<svg width="360" height="7626" viewBox="0 0 360 7626" fill="none" xmlns="http://www.w3.org/2000/svg" xmlns:xlink="http://www.w3.org/1999/xlink">
<g clip-path="url(#clip0_547_777)">
<rect width="360" height="7626" fill="white"/>
<g clip-path="url(#clip1_547_777)">
<rect width="360" height="834" fill="white"/>
<path d="M29.5076 591.46C27.2356 504.317 85.0078 405.46 -2.4107 419.46C-57.0896 428.216 -66.5601 799.61 3.07042 801.419C89.96 803.676 306.441 808.226 366.528 809.575C304.089 724.46 38.0074 917.46 29.5076 591.46Z" fill="#FFC107" fill-opacity="0.7"/>
<path d="M81.4885 770.905C47.9885 770.905 142.488 850.904 26.4886 711.905C-202.218 437.851 -30.626 778.61 1.98862 781.905C37.1914 781.905 269.173 820.043 405.99 812.594C511.99 611.905 328.489 770.905 81.4885 770.905Z" fill="#FFC107" fill-opacity="0.8"/>
<path d="M30.9889 357.905C43.4827 273.348 71.2011 127.252 -27.5113 32.4047C-81.2345 -19.2148 -116.834 817.113 -45.5001 817.5C43.5146 817.983 444 857 361.988 788.905C286.488 679.405 -59.5111 970.405 30.9889 357.905Z" fill="#4CAF50" fill-opacity="0.9"/>
<rect y="803" width="360" height="59" fill="white"/>
<ellipse cx="390.379" cy="34.364" rx="99.8953" ry="96.5891" transform="rotate(-19.4717 390.379 34.364)" fill="#F44336" fill-opacity="0.9"/>
<path d="M0 0H360V65H0V0Z" fill="white"/>
<rect y="17.2722" width="58.2222" height="47.2209" fill="url(#pattern1)"/>
</g>
</g>
</svg>
