<svg width="1440" height="600" viewBox="0 0 1440 600" fill="none" xmlns="http://www.w3.org/2000/svg" xmlns:xlink="http://www.w3.org/1999/xlink">
<g clip-path="url(#clip0_363_1273)">
<rect width="1440" height="600" fill="white"/>
<path d="M477.615 488.249C307.511 428.135 -41.6537 488.249 -41.6537 690.249C-60.8786 795.869 295.347 701.249 477.615 712.749C674.347 712.749 920.846 712.749 1683.35 725.249C1683.35 86.7488 1291.85 775.999 477.615 488.249Z" fill="#FFC107" fill-opacity="0.8"/>
<path d="M121.564 256.626C103.368 105.127 69 -1.99997 -51 -11.5C-274 -39.5 -378.92 336.699 -341.132 479.127C-270.65 744.783 1150.87 572.128 1378.87 603.127C831.867 417.128 180.233 745.117 121.564 256.626Z" fill="#4CAF50" fill-opacity="0.95"/>
<ellipse cx="1598.5" cy="-141.552" rx="334.5" ry="332.448" fill="#F44336" fill-opacity="0.9"/>
</g>
</svg>
